<svg width="18" height="37" viewBox="0 0 18 37" fill="none" xmlns="http://www.w3.org/2000/svg">
    <path d="M16.4794 1.5607C16.9694 2.13388 17.2212 2.86903 17.2348 3.76615C17.2484 4.66327 17.019 5.40573 16.5466 5.99352L6.49767 18.4974L16.9214 30.6907C17.4114 31.2639 17.6632 31.999 17.6768 32.8961C17.6904 33.7933 17.461 34.5357 16.9886 35.1235C16.5162 35.7113 15.9082 36.0108 15.1646 36.0221C14.4209 36.0334 13.8041 35.7524 13.3141 35.1793L1.01944 20.7975C0.752168 20.4848 0.560608 20.1446 0.444765 19.7769C0.330673 19.4091 0.270423 19.0142 0.264017 18.592C0.257611 18.1698 0.30585 17.7732 0.408732 17.4022C0.513365 17.0311 0.694515 16.6853 0.952179 16.3646L12.8048 1.61645C13.2772 1.02866 13.8852 0.72912 14.6289 0.717836C15.3725 0.706552 15.9894 0.987509 16.4794 1.5607Z" fill="#545454"/>
</svg>
