<svg width="41" height="39" viewBox="0 0 41 39" fill="none" xmlns="http://www.w3.org/2000/svg">
<path d="M28.8666 24.2917H27.0423L26.3957 23.6954C28.737 21.0985 30.0239 17.783 30.0213 14.3542C30.0213 11.5152 29.141 8.73996 27.4916 6.37943C25.8422 4.0189 23.4978 2.17909 20.755 1.09265C18.0121 0.00621944 14.994 -0.278041 12.0822 0.275818C9.17045 0.829676 6.4958 2.19678 4.39653 4.20424C2.29725 6.21171 0.867622 8.76938 0.288432 11.5538C-0.290757 14.3382 0.00650388 17.2244 1.14262 19.8473C2.27875 22.4702 4.2027 24.712 6.67119 26.2892C9.13968 27.8665 12.0418 28.7083 15.0107 28.7083C18.7287 28.7083 22.1465 27.4054 24.7791 25.2413L25.4027 25.8596V27.6042L36.9493 38.6238L40.3902 35.3333L28.8666 24.2917ZM15.0107 24.2917C9.26043 24.2917 4.61867 19.8529 4.61867 14.3542C4.61867 8.85542 9.26043 4.41667 15.0107 4.41667C20.7609 4.41667 25.4027 8.85542 25.4027 14.3542C25.4027 19.8529 20.7609 24.2917 15.0107 24.2917Z" fill="#545454"/>
</svg>
